# Blender v2.78 (sub 0) OBJ File: 'level.blend'
# www.blender.org
mtllib level.mtl
o topWall_topCube
v -6.000004 7.000000 1.000001
v -6.000005 7.000001 -0.999999
v -6.000004 9.000000 1.000001
v -6.000005 9.000000 -0.999999
v 5.999996 7.000003 0.999996
v 5.999995 7.000004 -1.000003
v 5.999995 9.000004 0.999997
v 5.999995 9.000004 -1.000003
vt 0.5839 0.4438
vt 0.5839 0.5000
vt 0.3487 0.5000
vt 0.3487 0.4438
vt 0.0743 0.8938
vt 0.0351 0.8938
vt 0.0351 0.5563
vt 0.0743 0.5563
vt 0.0351 0.5000
vt 0.0351 0.4437
vt 0.2703 0.4437
vt 0.2703 0.5000
vt 0.2703 0.8375
vt 0.2311 0.8375
vt 0.2311 0.5000
vt 0.2703 0.5000
vn -0.0000 0.0000 -1.0000
vn -0.0000 1.0000 -0.0000
vn 0.0000 -0.0000 1.0000
vn 0.0000 -1.0000 -0.0000
usemtl Bricks
s off
f 2/1/1 4/2/1 8/3/1 6/4/1
f 4/5/2 3/6/2 7/7/2 8/8/2
f 3/9/3 1/10/3 5/11/3 7/12/3
f 1/13/4 2/14/4 6/15/4 5/16/4
o rightWall_rightCube
v -6.000000 -9.000000 1.000000
v -8.000000 -9.000000 1.000000
v -8.000000 -9.000000 -1.000000
v -6.000000 -9.000000 -1.000000
v -6.000000 -7.000000 -1.000000
v -8.000000 -7.000000 1.000000
v -8.000000 -7.000000 -1.000000
v -6.000000 -7.000000 1.000000
v -8.000004 7.000000 1.000001
v -8.000004 7.000000 -0.999999
v -8.000005 9.000000 1.000001
v -8.000005 9.000000 -0.999999
v -6.000004 7.000000 1.000001
v -6.000005 7.000001 -0.999999
v -6.000004 9.000000 1.000001
v -6.000005 9.000000 -0.999999
vt 0.0351 -0.0063
vt 0.0351 0.0500
vt -0.0041 0.0500
vt -0.0041 -0.0063
vt 0.5839 -0.0063
vt 0.6231 -0.0063
vt 0.6231 0.0500
vt 0.5839 0.0500
vt 0.6623 0.0500
vt 0.6623 -0.0063
vt 0.1135 0.5563
vt 0.0743 0.5563
vt 0.0743 0.5000
vt 0.1135 0.5000
vt 0.6231 0.4437
vt 0.5839 0.4438
vt 0.6623 0.4437
vt 0.6623 0.5000
vt 0.6231 0.5000
vt 0.1135 0.5000
vt 0.1527 0.5000
vt 0.1527 0.8938
vt 0.1135 0.8938
vt 0.0351 0.4437
vt -0.0041 0.4437
vt 0.0351 0.8938
vt 0.0743 0.8938
vt 0.0743 0.9500
vt 0.0351 0.9500
vt 0.0351 0.5000
vt -0.0041 0.5000
vt 0.5839 0.5000
vn 0.0000 0.0000 1.0000
vn 0.0000 -0.0000 -1.0000
vn -1.0000 0.0000 0.0000
vn 0.0000 -1.0000 -0.0000
vn 1.0000 0.0000 -0.0000
vn 0.0000 1.0000 0.0000
usemtl Bricks
s off
f 9/17/5 16/18/5 14/19/5 10/20/5
f 12/21/6 11/22/6 15/23/6 13/24/6
f 14/25/7 15/23/7 11/22/7 10/26/7
f 12/27/8 9/28/8 10/29/8 11/30/8
f 13/24/6 15/23/6 18/31/6 22/32/6
f 18/31/7 17/33/7 19/34/7 20/35/7
f 16/36/9 13/37/9 22/38/9 21/39/9
f 15/23/7 14/25/7 17/33/7 18/31/7
f 14/19/5 16/18/5 21/40/5 17/41/5
f 23/42/10 24/43/10 20/44/10 19/45/10
f 17/41/5 21/40/5 23/46/5 19/47/5
f 22/32/6 18/31/6 20/35/6 24/48/6
o leftWall_leftCube
v 6.000000 -6.999997 0.999999
v 6.000000 -8.999996 -1.000000
v 5.999999 -6.999996 -1.000000
v 6.000000 -8.999996 1.000000
v 8.000000 -8.999996 0.999999
v 8.000000 -6.999996 0.999999
v 8.000000 -8.999995 -1.000001
v 7.999999 -6.999995 -1.000001
v 5.999996 7.000003 0.999996
v 5.999995 7.000004 -1.000003
v 5.999995 9.000004 0.999997
v 5.999995 9.000004 -1.000003
v 7.999996 7.000004 0.999996
v 7.999996 7.000005 -1.000004
v 7.999996 9.000004 0.999996
v 7.999996 9.000004 -1.000003
vt 0.1527 0.8375
vt 0.1919 0.8375
vt 0.1919 0.8938
vt 0.1527 0.8938
vt 0.0351 1.0063
vt -0.0041 1.0063
vt -0.0041 0.9500
vt 0.0351 0.9500
vt 0.2703 0.0500
vt 0.2703 -0.0063
vt 0.3095 -0.0063
vt 0.3095 0.0500
vt 0.3487 -0.0063
vt 0.3487 0.0500
vt 0.3095 0.0500
vt 0.3095 -0.0063
vt 0.0743 0.8938
vt 0.1135 0.8938
vt 0.1135 0.9500
vt 0.0743 0.9500
vt 0.2703 0.5000
vt 0.2703 0.4437
vt 0.3095 0.4437
vt 0.3095 0.5000
vt 0.0351 0.5563
vt -0.0041 0.5563
vt -0.0041 0.5000
vt 0.0351 0.5000
vt 0.3487 0.4438
vt 0.3487 0.5000
vt 0.3095 0.5000
vt 0.3095 0.4438
vt 0.0743 0.5563
vt 0.0351 0.5563
vt 0.0743 0.5000
vt 0.1919 0.5000
vt 0.2311 0.5000
vt 0.2311 0.8938
vt 0.1919 0.8938
vn -0.0000 1.0000 0.0000
vn 1.0000 0.0000 -0.0000
vn 0.0000 0.0000 1.0000
vn -0.0000 -0.0000 -1.0000
vn 0.0000 -1.0000 0.0000
vn -1.0000 -0.0000 0.0000
usemtl Bricks
s off
f 27/49/11 25/50/11 30/51/11 32/52/11
f 29/53/12 31/54/12 32/55/12 30/56/12
f 25/57/13 28/58/13 29/59/13 30/60/13
f 26/61/14 27/62/14 32/63/14 31/64/14
f 28/65/15 26/66/15 31/67/15 29/68/15
f 35/69/13 33/70/13 37/71/13 39/72/13
f 37/73/12 38/74/12 40/75/12 39/76/12
f 38/74/12 37/73/12 30/56/12 32/55/12
f 34/77/14 36/78/14 40/79/14 38/80/14
f 36/81/11 35/82/11 39/76/11 40/83/11
f 33/84/16 34/85/16 27/86/16 25/87/16
f 34/77/14 38/80/14 32/63/14 27/62/14
f 37/71/13 33/70/13 25/57/13 30/60/13
o bottomWall_bottomCube
v -6.000000 -9.000000 1.000000
v -6.000000 -9.000000 -1.000000
v -6.000000 -7.000000 -1.000000
v 6.000000 -6.999997 0.999999
v 6.000000 -8.999996 -1.000000
v 5.999999 -6.999996 -1.000000
v 6.000000 -8.999996 1.000000
v -6.000000 -7.000000 1.000000
vt 0.1527 0.5000
vt 0.1919 0.5000
vt 0.1919 0.8375
vt 0.1527 0.8375
vt 0.0351 0.0500
vt 0.0351 -0.0063
vt 0.2703 -0.0063
vt 0.2703 0.0500
vt 0.5839 -0.0063
vt 0.5839 0.0500
vt 0.3487 0.0500
vt 0.3487 -0.0063
vt 0.0743 0.5563
vt 0.1135 0.5563
vt 0.1135 0.8938
vt 0.0743 0.8938
vn -0.0000 1.0000 -0.0000
vn 0.0000 0.0000 1.0000
vn -0.0000 -0.0000 -1.0000
vn 0.0000 -1.0000 0.0000
usemtl Bricks
s off
f 43/88/17 48/89/17 44/90/17 46/91/17
f 48/92/18 41/93/18 47/94/18 44/95/18
f 42/96/19 43/97/19 46/98/19 45/99/19
f 41/100/20 42/101/20 45/102/20 47/103/20
