# Blender v2.78 (sub 0) OBJ File: 'level.blend'
# www.blender.org
mtllib level.mtl
o topWall_topCube
v -6.000004 7.000000 1.000001
v -6.000005 7.000001 -0.999999
v -6.000004 9.000000 1.000001
v -6.000005 9.000000 -0.999999
v 5.999996 7.000003 0.999996
v 5.999995 7.000004 -1.000003
v 5.999995 9.000004 0.999997
v 5.999995 9.000004 -1.000003
vt 0.7404 0.3569
vt 0.7404 0.4833
vt 0.0823 0.4833
vt 0.0823 0.3569
vt 0.0198 0.3163
vt 0.0198 0.1881
vt 0.6779 0.1881
vt 0.6779 0.3163
vt 0.8029 0.5441
vt 0.8029 0.6446
vt 0.1448 0.6446
vt 0.1448 0.5441
vt 0.8029 0.7451
vt 0.1448 0.7451
vn -0.0000 0.0000 -1.0000
vn -0.0000 1.0000 -0.0000
vn 0.0000 -0.0000 1.0000
vn 0.0000 -1.0000 -0.0000
usemtl Bricks
s off
f 2/1/1 4/2/1 8/3/1 6/4/1
f 4/5/2 3/6/2 7/7/2 8/8/2
f 3/9/3 1/10/3 5/11/3 7/12/3
f 1/10/4 2/13/4 6/14/4 5/11/4
o rightWall_rightCube
v -6.000000 -9.000000 1.000000
v -8.000000 -9.000000 1.000000
v -8.000000 -9.000000 -1.000000
v -6.000000 -9.000000 -1.000000
v -6.000000 -7.000000 -1.000000
v -8.000000 -7.000000 1.000000
v -8.000000 -7.000000 -1.000000
v -6.000000 -7.000000 1.000000
v -8.000004 7.000000 1.000001
v -8.000004 7.000000 -0.999999
v -8.000005 9.000000 1.000001
v -8.000005 9.000000 -0.999999
v -6.000004 7.000000 1.000001
v -6.000005 7.000001 -0.999999
v -6.000004 9.000000 1.000001
v -6.000005 9.000000 -0.999999
vt 0.2638 0.0002
vt 0.2638 0.1113
vt 0.1322 0.1113
vt 0.1322 0.0002
vt 0.5281 0.2870
vt 0.6597 0.2870
vt 0.6597 0.3981
vt 0.5281 0.3981
vt 0.1318 0.1113
vt 0.0002 0.1113
vt 0.0002 0.0002
vt 0.1318 0.0002
vt 0.6610 0.1752
vt 0.5281 0.1752
vt 0.5281 0.0002
vt 0.6610 0.0002
vt 0.5277 0.7777
vt 0.3961 0.7777
vt 0.3961 0.0002
vt 0.5277 0.0002
vt 0.0002 0.8887
vt 0.1318 0.8887
vt 0.1318 0.9998
vt 0.0002 0.9998
vt 0.2641 0.0002
vt 0.3957 0.0002
vt 0.3957 0.7777
vt 0.2641 0.7777
vt 0.2638 0.8887
vt 0.1322 0.8887
vt 0.5281 0.2867
vt 0.5281 0.1756
vt 0.6597 0.1756
vt 0.6597 0.2867
vt 0.2638 0.9998
vt 0.1322 0.9998
vt 0.6597 0.5095
vt 0.5281 0.5095
vt 0.5281 0.3985
vt 0.6597 0.3985
vn 0.0000 0.0000 1.0000
vn 0.0000 -0.0000 -1.0000
vn -1.0000 0.0000 0.0000
vn 0.0000 -1.0000 -0.0000
vn 1.0000 0.0000 -0.0000
vn 0.0000 1.0000 0.0000
usemtl Bricks
s off
f 9/15/5 16/16/5 14/17/5 10/18/5
f 12/19/6 11/20/6 15/21/6 13/22/6
f 14/23/7 15/24/7 11/25/7 10/26/7
f 12/27/8 9/28/8 10/29/8 11/30/8
f 13/31/6 15/32/6 18/33/6 22/34/6
f 18/35/7 17/36/7 19/37/7 20/38/7
f 16/39/9 13/40/9 22/41/9 21/42/9
f 15/24/7 14/23/7 17/36/7 18/35/7
f 14/17/5 16/16/5 21/43/5 17/44/5
f 23/45/10 24/46/10 20/47/10 19/48/10
f 17/44/5 21/43/5 23/49/5 19/50/5
f 22/51/6 18/52/6 20/53/6 24/54/6
o leftWall_leftCube
v 6.000000 -6.999997 0.999999
v 6.000000 -8.999996 -1.000000
v 5.999999 -6.999996 -1.000000
v 6.000000 -8.999996 1.000000
v 8.000000 -8.999996 0.999999
v 8.000000 -6.999996 0.999999
v 8.000000 -8.999995 -1.000001
v 7.999999 -6.999995 -1.000001
v 5.999996 7.000003 0.999996
v 5.999995 7.000004 -1.000003
v 5.999995 9.000004 0.999997
v 5.999995 9.000004 -1.000003
v 7.999996 7.000004 0.999996
v 7.999996 7.000005 -1.000004
v 7.999996 9.000004 0.999996
v 7.999996 9.000004 -1.000003
vt 0.8440 0.1483
vt 0.7190 0.1483
vt 0.7190 0.0002
vt 0.8440 0.0002
vt 0.7186 0.0002
vt 0.7186 0.1483
vt 0.5937 0.1483
vt 0.5937 0.0002
vt 0.7417 0.7086
vt 0.7417 0.8336
vt 0.5937 0.8336
vt 0.5937 0.7086
vt 0.7186 0.2963
vt 0.5937 0.2963
vt 0.5937 0.4574
vt 0.5937 0.2967
vt 0.7566 0.2967
vt 0.7566 0.4574
vt 0.7417 0.5833
vt 0.7417 0.7082
vt 0.5937 0.7082
vt 0.5937 0.5833
vt 0.0002 0.8748
vt 0.1483 0.8748
vt 0.1483 0.9998
vt 0.0002 0.9998
vt 0.0002 0.0002
vt 0.1483 0.0002
vt 0.2963 0.8748
vt 0.2963 0.9998
vt 0.7417 0.4579
vt 0.7417 0.5828
vt 0.5937 0.5828
vt 0.5937 0.4579
vt 0.2967 0.0002
vt 0.4448 0.0002
vt 0.4448 0.8748
vt 0.2967 0.8748
vt 0.2963 0.0002
vt 0.4452 0.0002
vt 0.5932 0.0002
vt 0.5932 0.8748
vt 0.4452 0.8748
vn -0.0000 1.0000 0.0000
vn 1.0000 0.0000 -0.0000
vn 0.0000 0.0000 1.0000
vn -0.0000 -0.0000 -1.0000
vn 0.0000 -1.0000 0.0000
vn -1.0000 -0.0000 0.0000
usemtl Bricks
s off
f 27/55/11 25/56/11 30/57/11 32/58/11
f 29/59/12 31/60/12 32/61/12 30/62/12
f 25/63/13 28/64/13 29/65/13 30/66/13
f 26/67/14 27/68/14 32/61/14 31/60/14
f 28/69/15 26/70/15 31/71/15 29/72/15
f 35/73/13 33/74/13 37/75/13 39/76/13
f 37/77/12 38/78/12 40/79/12 39/80/12
f 38/78/12 37/77/12 30/81/12 32/82/12
f 34/83/14 36/84/14 40/79/14 38/78/14
f 36/85/11 35/86/11 39/87/11 40/88/11
f 33/89/16 34/90/16 27/91/16 25/92/16
f 34/83/14 38/78/14 32/82/14 27/93/14
f 37/94/13 33/95/13 25/96/13 30/97/13
o bottomWall_bottomCube
v -6.000000 -9.000000 1.000000
v -6.000000 -9.000000 -1.000000
v -6.000000 -7.000000 -1.000000
v 6.000000 -6.999997 0.999999
v 6.000000 -8.999996 -1.000000
v 5.999999 -6.999996 -1.000000
v 6.000000 -8.999996 1.000000
v -6.000000 -7.000000 1.000000
vt 0.0118 0.5592
vt 0.0118 0.4309
vt 0.8964 0.4309
vt 0.8964 0.5592
vt 0.8964 0.1908
vt 0.8964 0.3191
vt 0.0118 0.3191
vt 0.0118 0.1908
vt 0.8964 0.6562
vt 0.8964 0.7846
vt 0.0118 0.7846
vt 0.0118 0.6562
vt 0.8964 0.5592
vt 0.8964 0.6875
vt 0.0118 0.6875
vt 0.0118 0.5592
vn -0.0000 1.0000 -0.0000
vn 0.0000 0.0000 1.0000
vn -0.0000 -0.0000 -1.0000
vn 0.0000 -1.0000 0.0000
usemtl Bricks
s off
f 43/98/17 48/99/17 44/100/17 46/101/17
f 48/102/18 41/103/18 47/104/18 44/105/18
f 42/106/19 43/107/19 46/108/19 45/109/19
f 41/110/20 42/111/20 45/112/20 47/113/20
